<?xml version="1.0" encoding="utf-8"?>
<!-- Generator: Adobe Illustrator 23.0.2, SVG Export Plug-In . SVG Version: 6.00 Build 0)  -->
<svg version="1.1" id="Layer_1" xmlns="http://www.w3.org/2000/svg" xmlns:xlink="http://www.w3.org/1999/xlink" x="0px" y="0px"
	 width="32px" height="32px" viewBox="0 0 32 32" style="enable-background:new 0 0 32 32;" xml:space="preserve">
<path style="fill:#FFFFFF;" d="M26.7,30.3l-25-25c-1-1-1-2.6,0-3.5l0,0c1-1,2.6-1,3.5,0l25,25c1,1,1,2.6,0,3.5l0,0
	C29.3,31.2,27.7,31.2,26.7,30.3z"/>
<path style="fill:#FFFFFF;" d="M30.3,5.3l-25,25c-1,1-2.6,1-3.5,0l0,0c-1-1-1-2.6,0-3.5l25-25c1-1,2.6-1,3.5,0l0,0
	C31.2,2.7,31.2,4.3,30.3,5.3z"/>
</svg>
